<svg width="50" height="51" viewBox="0 0 50 51" fill="none" xmlns="http://www.w3.org/2000/svg">
<path d="M50 25.5C50 11.6914 38.8086 0.5 25 0.5C11.1914 0.5 0 11.6914 0 25.5C0 37.2188 8.07617 47.0625 18.9648 49.7676V33.1367H13.8086V25.5H18.9648V22.209C18.9648 13.7031 22.8125 9.75781 31.1719 9.75781C32.7539 9.75781 35.4883 10.0703 36.6113 10.3828V17.2969C36.0254 17.2383 35 17.1992 33.7207 17.1992C29.6191 17.1992 28.0371 18.752 28.0371 22.7852V25.5H36.2012L34.7949 33.1367H28.0273V50.3145C40.4102 48.8203 50 38.2832 50 25.5Z" fill="black"/>
</svg>
