<svg width="50" height="45" viewBox="0 0 50 45" fill="none" xmlns="http://www.w3.org/2000/svg">
<path d="M25.0112 11.2695C17.913 11.2695 12.1875 16.2793 12.1875 22.4902C12.1875 28.7012 17.913 33.7109 25.0112 33.7109C32.1094 33.7109 37.8348 28.7012 37.8348 22.4902C37.8348 16.2793 32.1094 11.2695 25.0112 11.2695ZM25.0112 29.7852C20.4241 29.7852 16.6741 26.5137 16.6741 22.4902C16.6741 18.4668 20.413 15.1953 25.0112 15.1953C29.6094 15.1953 33.3482 18.4668 33.3482 22.4902C33.3482 26.5137 29.5982 29.7852 25.0112 29.7852ZM41.3505 10.8105C41.3505 12.2656 40.0112 13.4277 38.3594 13.4277C36.6964 13.4277 35.3683 12.2559 35.3683 10.8105C35.3683 9.36523 36.7076 8.19336 38.3594 8.19336C40.0112 8.19336 41.3505 9.36523 41.3505 10.8105ZM49.8438 13.4668C49.654 9.96094 48.7388 6.85547 45.8036 4.29687C42.8795 1.73828 39.3304 0.9375 35.3237 0.761719C31.1942 0.556641 18.817 0.556641 14.6875 0.761719C10.692 0.927734 7.14287 1.72852 4.2076 4.28711C1.27233 6.8457 0.368312 9.95117 0.167419 13.457C-0.0669556 17.0703 -0.0669556 27.9004 0.167419 31.5137C0.357152 35.0195 1.27233 38.125 4.2076 40.6836C7.14287 43.2422 10.6808 44.043 14.6875 44.2187C18.817 44.4238 31.1942 44.4238 35.3237 44.2187C39.3304 44.0527 42.8795 43.2519 45.8036 40.6836C48.7277 38.125 49.6429 35.0195 49.8438 31.5137C50.0781 27.9004 50.0781 17.0801 49.8438 13.4668ZM44.5089 35.3906C43.6384 37.3047 41.9531 38.7793 39.7545 39.5508C36.4621 40.6934 28.6496 40.4297 25.0112 40.4297C21.3728 40.4297 13.5491 40.6836 10.2679 39.5508C8.08037 38.7891 6.3951 37.3144 5.5134 35.3906C4.2076 32.5098 4.50894 25.6738 4.50894 22.4902C4.50894 19.3066 4.21876 12.4609 5.5134 9.58984C6.38394 7.67578 8.0692 6.20117 10.2679 5.42969C13.5603 4.28711 21.3728 4.55078 25.0112 4.55078C28.6496 4.55078 36.4732 4.29687 39.7545 5.42969C41.942 6.19141 43.6272 7.66601 44.5089 9.58984C45.8147 12.4707 45.5134 19.3066 45.5134 22.4902C45.5134 25.6738 45.8147 32.5195 44.5089 35.3906Z" fill="black"/>
</svg>
