<svg width="44" height="37" viewBox="0 0 44 37" fill="none" xmlns="http://www.w3.org/2000/svg">
<path d="M0.125 2.59375C0.125 1.97215 0.37193 1.37601 0.811469 0.936468C1.25101 0.49693 1.84715 0.25 2.46875 0.25H41.5312C42.1529 0.25 42.749 0.49693 43.1885 0.936468C43.6281 1.37601 43.875 1.97215 43.875 2.59375C43.875 3.21535 43.6281 3.81149 43.1885 4.25103C42.749 4.69057 42.1529 4.9375 41.5312 4.9375H2.46875C1.84715 4.9375 1.25101 4.69057 0.811469 4.25103C0.37193 3.81149 0.125 3.21535 0.125 2.59375ZM0.125 18.2188C0.125 17.5971 0.37193 17.001 0.811469 16.5615C1.25101 16.1219 1.84715 15.875 2.46875 15.875H41.5312C42.1529 15.875 42.749 16.1219 43.1885 16.5615C43.6281 17.001 43.875 17.5971 43.875 18.2188C43.875 18.8404 43.6281 19.4365 43.1885 19.876C42.749 20.3156 42.1529 20.5625 41.5312 20.5625H2.46875C1.84715 20.5625 1.25101 20.3156 0.811469 19.876C0.37193 19.4365 0.125 18.8404 0.125 18.2188ZM2.46875 31.5H41.5312C42.1529 31.5 42.749 31.7469 43.1885 32.1865C43.6281 32.626 43.875 33.2221 43.875 33.8438C43.875 34.4654 43.6281 35.0615 43.1885 35.501C42.749 35.9406 42.1529 36.1875 41.5312 36.1875H2.46875C1.84715 36.1875 1.25101 35.9406 0.811469 35.501C0.37193 35.0615 0.125 34.4654 0.125 33.8438C0.125 33.2221 0.37193 32.626 0.811469 32.1865C1.25101 31.7469 1.84715 31.5 2.46875 31.5Z" fill="black"/>
</svg>
